<?xml version="1.0" encoding="UTF-8" standalone="no"?><!DOCTYPE svg PUBLIC "-//W3C//DTD SVG 1.1//EN" "http://www.w3.org/Graphics/SVG/1.1/DTD/svg11.dtd"><!--Generated by Intaglio, www.PurgatoryDesign.com--><svg version="1.1" viewBox="0,0,146,94" xmlns="http://www.w3.org/2000/svg" xmlns:xlink="http://www.w3.org/1999/xlink"><path fill="#000" d="M65.587,43.13 C65.587,43.38,66.753,43.492,66.753,44.08 L66.753,53.435 L74.848,53.435 L75.561,50.725 C75.561,50.725,75.333,50.68,75.151,50.873 C74.762,51.29,74.421,52.505,72.597,52.505 L68.722,52.505 L68.722,48.349 L73.054,48.349 L73.054,47.389 L68.722,47.389 L68.722,43.894 L72.915,43.894 C73.749,43.894,74.108,44.494,74.592,44.64 C74.707,44.67,74.841,44.644,74.841,44.644 L74.198,42.972 L65.587,42.972 L65.587,43.13"></path><path fill="#000" d="M58.268,53.435 C59.363,53.435,60.427,53.273,61.327,52.867 C63.229,52.01,64.5,50.271,64.5,48.133 C64.5,45.021,62.165,42.972,57.779,42.972 L53.748,42.972 L53.748,43.131 C53.748,43.38,54.906,43.488,54.906,44.085 L54.906,53.435 L58.268,53.435 Z M60.584,52.097 C60.002,52.384,59.238,52.505,58.683,52.505 L56.88,52.505 L56.88,43.9 L57.126,43.9 C61.857,43.9,62.807,46.569,62.807,48.447 C62.807,50.184,61.847,51.475,60.584,52.097"></path><path fill="#000" d="M0.259,40.75 C0.259,41.003,1.285,40.933,1.613,41.738 L6.53,53.435 L7.993,53.435 L12.89,40.585 L10.071,40.585 L10.071,40.75 C10.071,41,11.093,40.888,11.102,41.44 C11.102,41.674,10.876,42.315,10.704,42.802 L7.578,51.176 L7.537,51.176 L3.248,40.585 L0.259,40.585 L0.259,40.75"></path><path fill="#000" d="M38.399,43.13 C38.399,43.38,39.565,43.492,39.565,44.08 L39.565,53.435 L47.66,53.435 L48.373,50.725 C48.373,50.725,48.145,50.68,47.963,50.873 C47.574,51.29,47.233,52.505,45.409,52.505 L41.533,52.505 L41.533,48.349 L45.866,48.349 L45.866,47.389 L41.533,47.389 L41.533,43.894 L45.727,43.894 C46.561,43.894,46.92,44.494,47.404,44.64 C47.519,44.67,47.653,44.644,47.653,44.644 L47.009,42.972 L38.399,42.972 L38.399,43.13"></path><path fill="#000" d="M28.73,42.972 L28.73,43.13 C28.73,43.38,29.896,43.492,29.896,44.08 L29.896,53.435 L37.475,53.435 L38.189,50.725 C38.189,50.725,37.96,50.68,37.778,50.873 C37.39,51.29,37.049,52.505,35.224,52.505 L31.865,52.505 L31.865,42.972 L28.73,42.972"></path><path fill="#000" d="M18.954,42.972 L18.954,43.13 C18.954,43.38,20.12,43.492,20.12,44.08 L20.12,53.435 L27.699,53.435 L28.412,50.725 C28.412,50.725,28.184,50.68,28.002,50.873 C27.614,51.29,27.273,52.505,25.448,52.505 L22.088,52.505 L22.088,42.972 L18.954,42.972"></path><path fill="#000" d="M16.742,53.435 L16.742,42.972 L13.608,42.972 L13.608,43.13 C13.608,43.38,14.774,43.492,14.774,44.08 L14.774,53.435 L16.742,53.435"></path><path fill="#000" d="M66.196,62.554 C67.38,62.288,71.7,59.914,74.487,58.439 L69.621,58.439 L65.293,62.335 C65.293,62.335,65.654,62.678,66.196,62.554"></path><path fill="#000" d="M48.43,64.586 L48.43,64.905 C48.43,65.398,50.851,65.62,50.851,66.781 L50.851,78.253 C50.851,81.707,48.176,83.854,44.803,83.854 C41.427,83.854,38.756,81.583,38.756,78.123 L38.756,64.586 L32.713,64.586 C32.713,64.586,32.713,64.597,32.713,64.903 C32.713,65.436,34.677,65.61,34.677,67.044 L34.677,77.643 C34.677,82.702,38.125,85.626,44.505,85.626 C46.913,85.626,49.252,84.675,50.851,83.222 L50.851,85.266 L56.9,85.266 C56.9,85.266,56.9,85.258,56.9,84.952 C56.9,84.419,54.94,84.244,54.94,82.809 L54.94,64.586 L48.43,64.586"></path><path fill="#000" d="M144.461,69.97 C144.266,68.335,144.111,66.705,144.076,65.072 C142.268,64.355,140.117,64.062,138.126,64.062 C131.648,64.062,124.342,67.482,124.342,75.026 C124.342,82.655,131.352,85.791,136.439,85.791 C139.766,85.791,143.016,84.974,145.094,83.28 L145.245,81.453 C143.053,82.655,140.431,83.572,137.73,83.572 C132.212,83.572,127.947,78.975,127.947,73.947 C127.947,69.655,131.334,66.086,137.064,66.086 C138.978,66.086,141.18,66.53,142.602,67.809 C143.34,68.427,143.75,69.97,144.147,69.97 L144.461,69.97"></path><path fill="#000" d="M58.77,64.898 C58.77,65.392,61.192,65.613,61.192,66.774 L61.192,85.266 L78.007,85.266 L79.488,79.91 C79.488,79.91,79.016,79.822,78.637,80.204 C77.83,81.028,77.121,83.428,73.331,83.428 L65.281,83.428 L65.281,75.214 L74.28,75.214 L74.28,73.315 L65.281,73.315 L65.281,66.406 L73.991,66.406 C75.725,66.406,76.471,67.593,77.477,67.882 C77.713,67.942,77.992,67.891,77.992,67.891 L76.656,64.586 L58.77,64.586 L58.77,64.898"></path><path fill="#000" d="M102.158,64.898 C102.158,65.392,104.582,65.613,104.582,66.774 L104.582,85.266 L121.396,85.266 L122.877,79.91 C122.877,79.91,122.404,79.822,122.024,80.204 C121.219,81.028,120.51,83.428,116.719,83.428 L108.67,83.428 L108.67,75.214 L117.67,75.214 L117.67,73.315 L108.67,73.315 L108.67,66.406 L117.379,66.406 C119.113,66.406,119.858,67.593,120.865,67.882 C121.102,67.942,121.381,67.891,121.381,67.891 L120.044,64.586 L102.158,64.586 L102.158,64.898"></path><path fill="#000" d="M80.234,64.586 L80.234,64.898 C80.234,65.392,82.657,65.613,82.657,66.774 L82.657,85.266 L90.526,85.266 C92.404,85.266,94.031,85.122,95.412,84.765 C99.328,83.753,101.256,81.45,101.256,79.136 C101.256,75.674,97.883,74.367,94.124,74.01 L94.124,73.947 C96.943,73.23,99.063,71.988,99.063,69.413 C99.063,65.682,95.312,64.586,90.175,64.586 L80.234,64.586 Z M90.096,66.406 C90.977,66.406,91.82,66.451,92.565,66.63 C94.268,67.037,95.461,68.01,95.461,69.804 C95.461,71.435,94.228,72.646,91.854,73.157 C90.949,73.351,89.879,73.393,88.649,73.393 L86.746,73.393 L86.746,66.406 L90.096,66.406 Z M90.449,75.214 C91.492,75.214,92.433,75.232,93.262,75.39 C95.918,75.897,97.419,77.288,97.419,79.523 C97.419,81.448,95.83,82.713,93.025,83.222 C91.93,83.421,90.625,83.428,89.193,83.428 L86.746,83.428 L86.746,75.214 L90.449,75.214"></path><path fill="#000" d="M48.265,90.572 C48.265,90.81,48.077,90.927,47.83,91.041 C45.646,92.173,41.54,93.971,36.305,93.971 C30.812,93.971,26.96,92.407,20.924,88.662 L16.533,85.898 C15.976,85.938,15.413,85.953,14.843,85.936 C6.544,85.701,0.21,79.499,0.694,72.083 C1.178,64.667,8.298,58.846,16.597,59.081 C24.895,59.316,31.229,65.519,30.746,72.935 C30.394,78.316,26.548,82.855,21.294,84.852 L25.323,87.142 C32.999,91.357,37.831,91.786,40.302,91.786 C42.193,91.786,44.883,91.471,47.391,90.416 C47.607,90.339,47.796,90.222,47.935,90.222 C48.117,90.222,48.265,90.379,48.265,90.572 Z M15.2,61.911 C9.311,61.911,4.771,66.655,5.058,72.508 C5.345,78.36,10.351,83.106,16.24,83.106 C22.129,83.107,26.669,78.363,26.382,72.51 C26.095,66.657,21.088,61.912,15.2,61.911"></path><path fill="#000" d="M100.857,25.983 C98.199,22.198,97.412,17.119,103.383,15.413 L113.079,13.521 C110.81,15.664,110.097,19.115,113.045,23.943 C107.299,21.14,100.345,21.542,100.857,25.983"></path><path fill="#000" d="M130.44,20.776 C127.049,15.634,128.523,11.528,130.361,9.659 L117.502,12.416 C111.803,14.841,113.225,20.232,115.291,23.302 C114.894,19.33,120.906,17.291,130.44,20.776"></path><path fill="#000" d="M119.477,41.366 C108.244,31.926,112.453,25.668,116.328,23.75 L130.594,21.096 C124.169,27.699,126.592,35.358,129.769,39.238 C124.172,36.122,116.377,35.841,119.477,41.366"></path><path fill="#000" d="M107.322,37.897 C105.36,38.021,104.42,39.252,104.644,40.736 C100.118,37.392,97.262,31.719,100.935,26.692 L113.164,24.419 C110.268,27.122,108.445,33.5,117.502,41.209 C114.547,40.338,111.334,37.644,107.322,37.897"></path><path fill="#000" d="M141.541,19.611 C134.473,21.1,122.353,26.894,131.405,38.624 C129.855,33.981,134.692,33.532,141.619,34.599 C137.384,31.828,134.449,26.112,141.541,19.611"></path><path fill="#000" d="M126.462,42.904 L126.853,41.761 L129.141,41.6 L130.009,39.826 L136.911,37.774 L137.547,36.236 L143.541,34.263 C144.578,36.613,143.861,39.014,142.676,40.948 C141.965,42.109,141.026,43.044,140.353,43.862 C138.563,46.041,139.076,49.701,141.014,53.435 L107.805,53.435 C105.01,50.844,104.031,48.339,102.754,45.768 C101.477,43.196,99.966,42.067,95.988,39.384 C95.055,38.754,95.543,37.852,96.568,38.473 L99.478,40.222 C107.343,43.069,117.503,43.173,126.462,42.904"></path><path fill="#000" d="M88.787,30.598 L90.152,30.639 C88.059,29.197,86.293,27.914,85.846,27.602 C85.166,27.153,85.045,27.746,85.428,28.026 L88.787,30.598"></path><path fill="#000" d="M95.079,34.043 C95.079,34.043,94.529,35.034,94.978,35.67 L98.877,38.951 L102.865,40.019 L95.079,34.043"></path><path fill="#000" d="M106.579,5.923 C106.612,5.337,106.852,5.26,106.897,5.83 C106.946,6.401,107.547,12.635,107.561,13.157 C107.576,13.682,107.518,13.801,107.346,13.845 C107.178,13.896,106.897,13.931,106.712,13.947 C106.527,13.96,106.435,13.897,106.423,13.588 C106.406,13.281,106.519,7.005,106.579,5.923"></path><path fill="#000" d="M123.527,0.721001 C123.518,0.454002,123.582,0.259003,123.716,0.251999 C123.849,0.246002,123.912,0.417,123.926,0.609001 C123.959,1.058,124.53,9.745,124.545,10.002 C124.558,10.265,124.515,10.354,124.296,10.417 C124.059,10.486,123.959,10.509,123.74,10.543 C123.527,10.569,123.373,10.494,123.373,10.247 C123.373,10.002,123.541,1.165,123.527,0.721001"></path><path fill="#000" d="M134.734,10.998 C134.752,10.602,135.01,10.516,135.041,10.918 C135.071,11.318,135.539,20.109,135.539,20.589 C135.539,21.069,135.502,21.131,135.346,21.228 C135.187,21.325,135.071,21.374,134.85,21.468 C134.627,21.566,134.517,21.548,134.517,21.275 C134.517,21.004,134.621,13.563,134.734,10.998"></path><path fill="#000" d="M129.717,14.19 C129.555,13.921,129.691,13.906,129.807,13.924 C130.119,13.971,130.928,14.084,131.512,13.771 C132.096,13.463,132.664,13.091,133.268,12.963 C134.057,12.796,134.404,12.931,134.057,13.351 C133.485,14.042,133.424,15.042,133.934,15.869 C134.092,16.131,134.108,16.274,133.812,16.243 C132.145,16.054,131.449,15.656,130.115,16.419 C129.824,16.585,129.748,16.471,129.851,16.316 C130.149,15.866,130.495,15.546,130.943,15.261 C131.173,15.116,131.102,15.046,130.935,14.993 C130.297,14.79,129.865,14.432,129.717,14.19"></path><path fill="#000" d="M122.821,3.007 C121.74,3.513,121.06,3.415,120.498,3.13 C120.242,3.002,119.986,2.87,119.781,2.794 C118.87,2.45,118.418,2.639,117.821,3.085 C117.102,3.625,116.375,3.842,115.546,4.051 C115.045,4.177,114.5,4.38,114.123,4.659 C113.588,5.051,113.301,5.564,113.174,5.958 C113.069,6.276,113.133,6.345,113.365,6.258 C114.254,5.928,114.512,5.743,115.705,6.018 C117.107,6.341,117.753,6.451,119.116,5.956 C120.459,5.47,121.098,5.363,121.909,5.81 C122.245,5.996,122.639,6.331,122.772,6.163 C122.906,5.996,122.545,5.734,122.475,5.497 C122.187,4.514,122.588,3.691,122.945,3.227 C123.027,3.118,122.986,2.929,122.821,3.007"></path><path fill="#000" d="M105.824,9.26 C105.525,8.745,105.637,7.919,105.865,7.289 C106.004,6.91,105.438,6.761,104.605,7.028 C103.758,7.301,103.239,7.764,102.095,7.861 C101.169,7.94,100.353,7.781,100.027,7.704 C99.776,7.644,99.817,7.774,100.059,8.045 C100.199,8.203,100.587,8.496,100.985,8.705 C101.139,8.786,101.105,8.914,100.916,9.119 C100.766,9.283,100.475,9.514,100.021,9.745 C99.93,9.792,99.789,9.895,100.199,10.09 C100.772,10.361,101.896,10.63,103.275,10.143 C103.94,9.907,104.371,9.602,105.08,9.628 C105.923,9.659,106.08,9.702,105.824,9.26"></path><path fill="#000" d="M144.76,29.271 C144.76,29.888,144.258,30.389,143.641,30.389 C143.022,30.389,142.522,29.888,142.522,29.271 C142.522,28.653,143.022,28.151,143.641,28.151 C144.258,28.151,144.76,28.653,144.76,29.271"></path><path fill="#000" d="M145.127,30.113 C144.834,30.63,144.279,30.981,143.641,30.981 C143.003,30.981,142.447,30.63,142.154,30.113 C141.734,30.542,141.662,30.765,141.662,30.765 L142.222,31.199 L142.744,33.834 L144.537,33.834 L145.06,31.199 L145.618,30.765 C145.618,30.765,145.546,30.542,145.127,30.113"></path><path fill="#000" d="M140.672,45.161 C139.799,46.959,140.222,49.801,141.875,52.987 L142.107,53.435 L144.105,53.435 C144.105,53.435,144.244,52.21,142.471,49.766 C140.828,47.505,140.68,45.643,140.672,45.161"></path><path fill="#000" d="M97.002,41.67 C97.157,41.787,97.127,41.886,96.959,41.776 C96.789,41.665,95.852,41.111,95.334,40.842 C88.373,47.112,79.795,36.285,86.383,31.334 L95.41,31.061 C92.518,36.245,94.42,39.717,97.002,41.67 Z M95.137,40.724 C91.969,38.954,88.866,38.705,88.272,40.292 C87.457,42.467,92.627,43.353,95.137,40.724"></path></svg>